<svg xmlns="http://www.w3.org/2000/svg" width="1024" height="1024" viewBox="0 0 1024 1024">
  <title>P Logo - Flat Minimal</title>
  <desc>Flat minimalist logo: geometric white P over 3x3 green patchwork background. No gradients, no shadows.</desc>
  
  <!-- Background: 3x3 grid of green squares -->
  <g id="background">
    <rect x="0" y="0" width="341.333" height="341.333" fill="#a8f0cb"/>
    <rect x="341.333" y="0" width="341.333" height="341.333" fill="#47da93"/>
    <rect x="682.667" y="0" width="341.333" height="341.333" fill="#7beab5"/>
    <rect x="0" y="341.333" width="341.333" height="341.333" fill="#38bd7b"/>
    <rect x="341.333" y="341.333" width="341.333" height="341.333" fill="#4bcd8c"/>
    <rect x="682.667" y="341.333" width="341.333" height="341.333" fill="#98edc3"/>
    <rect x="0" y="682.667" width="341.333" height="341.333" fill="#22915c"/>
    <rect x="341.333" y="682.667" width="341.333" height="341.333" fill="#32b775"/>
    <rect x="682.667" y="682.667" width="341.333" height="341.333" fill="#4ada94"/>
  </g>
  
  <!-- Letter P: Geometric flat design -->
  <g id="letter" fill="#ffffff" fill-rule="evenodd">
    <path d="
      M 295 175
      L 540 175
      C 590 175 635 185 670 210
      C 705 235 730 270 745 315
      C 760 360 760 410 745 455
      C 730 500 705 535 670 560
      C 635 585 590 595 540 595
      L 455 595
      L 455 849
      L 295 849
      L 295 175
      Z
      M 455 315
      L 455 455
      L 520 455
      C 545 455 565 450 580 435
      C 595 420 600 400 600 385
      C 600 370 595 350 580 335
      C 565 320 545 315 520 315
      L 455 315
      Z
    "/>
  </g>
</svg>
